<svg xmlns="http://www.w3.org/2000/svg" viewBox="0 0 256 256"><g stroke-miterlimit="10" font-family="none" font-size="none" font-weight="none" text-anchor="none"><path fill="#101215" d="M0 256V0h256v256z" style="mix-blend-mode:normal"/><g fill="none" style="mix-blend-mode:normal"><path fill="#ffbbd8" d="M10 32c0-11 11-22 22-22h192c11 0 22 11 22 22v166c0 11-11 23-22 23H44l-34 28z"/><path fill="#f078a4" d="M224 13c9 0 19 10 19 19v166c0 10-10 20-19 20H42l-1 1-28 23V32c0-9 10-19 19-19h192m0-7H32C19 6 6 19 6 32v224l39-32h179c13 0 26-13 26-26V32c0-13-13-26-26-26z"/><path fill="#fff" d="M128 46a11 11 0 1 0 0 22 11 11 0 0 0 0-22zm6 114V83h-25v13h13v64h-13v13h38v-13z"/></g></g></svg>
