<svg width="67" height="33" fill="none" xmlns="http://www.w3.org/2000/svg"><path d="M25.36.07c-1.54.183-2.76.804-4.01 2.019-.721.706-.983 1.045-2.487 3.242-.056.077-.339.494-.621.918-.276.416-.537.798-.58.847-.035.042-.275.396-.536.777s-.643.932-.855 1.222c-.212.29-1.052 1.504-1.878 2.697l-2.733 3.955c-.678.982-1.483 2.147-1.794 2.6-.304.444-.791 1.15-1.08 1.567l-.523.763H20.12l.255-.353c.14-.198.254-.382.254-.417 0-.035.021-.078.056-.092.029-.014.34-.452.685-.974.353-.523.671-.996.72-1.06.043-.056.297-.423.559-.812.26-.388.776-1.151 1.15-1.695.368-.544.99-1.469 1.385-2.048.395-.586.84-1.243.996-1.462.148-.226.325-.402.381-.41.057 0 .233.177.389.396.155.219.353.495.444.622.085.12.24.346.347.501.098.155.204.297.233.318.028.021.127.148.218.296.092.142 1.159 1.66 2.36 3.37l2.188 3.107h15.396c12.642 0 15.466-.015 15.784-.092 1.328-.325 2.387-1.363 2.684-2.642.113-.473.113-1.3.007-1.709-.31-1.2-1.285-2.21-2.514-2.62-.233-.077-2.585-.106-12.564-.134l-12.281-.035-1.773-2.521c-.981-1.392-1.85-2.614-1.942-2.72-.085-.112-.198-.268-.233-.36-.042-.084-.106-.155-.141-.155-.028 0-.057-.05-.057-.106 0-.056-.028-.106-.056-.106s-.113-.106-.19-.233c-.071-.12-.15-.24-.177-.261-.029-.021-.537-.735-1.13-1.582-1.377-1.956-2.225-2.853-3.496-3.68-.84-.55-1.413-.748-2.648-.918-.813-.113-1.243-.12-2.049-.02Z" fill="#000"/><path d="M35 .64c0 .03.08.127.18.229l.24.24c.093.102 2.646 3.09 2.827 3.317.094.12.217.258.275.3.05.048.13.138.173.204.044.066.123.162.181.216.05.054.55.63 1.092 1.272l.998 1.17 10.92.018c11.165.018 11.527.012 12.33-.21 1.186-.324 2.155-1.116 2.625-2.154.13-.3.159-.474.159-1.134 0-.864-.101-1.187-.557-1.805-.535-.732-1.236-1.2-2.372-1.566-.303-.096-1.193-.108-14.694-.12C41.465.605 35 .617 35 .64ZM26.151 20.54c-.382.511-.997 1.312-1.35 1.773-.361.46-.658.852-.658.865 0 .012-.297.403-.658.87-.36.461-.679.884-.707.928-.028.05-.51.688-1.068 1.42-.566.726-1.464 1.906-2.001 2.619-.538.707-1.365 1.799-1.84 2.417-.48.618-.869 1.136-.869 1.148 0 .02 10.467.032 23.267.032 25.014 0 23.536.019 24.357-.31.417-.163.92-.473 1.23-.756.743-.688 1.146-1.59 1.146-2.581 0-1.553-1.06-2.878-2.723-3.402l-.566-.177-16.082-.012-16.082-.013-.17-.158c-.084-.088-.162-.176-.162-.202 0-.025-.113-.164-.247-.315-.135-.145-.248-.284-.248-.31 0-.025-.113-.163-.248-.309-.134-.151-.247-.29-.247-.315 0-.025-.043-.082-.092-.133-.05-.044-.792-.965-1.64-2.044-.85-1.08-1.57-1.963-1.592-1.963-.028 0-.368.417-.75.928ZM5.042 25.33c-.593.855-1.08 1.569-1.08 1.59 0 .021 2.684.042 5.96.042h5.961l.283-.445c.296-.473 1.588-2.358 1.709-2.5.035-.05.07-.12.07-.162 0-.05-1.857-.07-5.911-.07H6.116L5.042 25.33ZM2.055 29.695c-.099.142-.212.29-.247.332-.064.064-.55.763-1.674 2.387L0 32.612l6.024-.007h6.024l.777-1.18c.798-1.207 1.236-1.906 1.236-1.963 0-.014-2.663-.028-5.911-.028H2.232l-.177.261Z" /></svg>
