<svg xmlns="http://www.w3.org/2000/svg" fill="none" viewBox="0 0 603 285"><path fill="#42434E" fill-rule="evenodd" d="M89.115 0c14.751.205 28.279 4.435 40.587 12.69a114.742 114.742 0 0 1 27.903 25.02c5.857 7.428 8.514 15.889 7.973 25.382a23.605 23.605 0 0 1-2.174 5.076c-6.668 7.441-10.533 16.143-11.597 26.107a3072.078 3072.078 0 0 0-.362 66.717c3.15-.12 6.29.001 9.422.363a3.331 3.331 0 0 1 1.812 1.813 8976.136 8976.136 0 0 1 17.394 77.595 11054.235 11054.235 0 0 0 17.394-77.595l1.812-1.813a185.414 185.414 0 0 1 23.193 0l1.087 1.088c.483 40.369.483 80.737 0 121.106l-1.087 1.088c-5.798.484-11.596.484-17.395 0l-1.087-1.088a3486.16 3486.16 0 0 0-1.087-71.068l-16.307 71.068-1.087 1.088a40.884 40.884 0 0 1-10.872 0 5.062 5.062 0 0 1-1.812-2.538 3621.944 3621.944 0 0 0-15.582-69.618 3486.16 3486.16 0 0 0-1.087 71.068l-1.087 1.088c-5.798.484-11.596.484-17.395 0a3.228 3.228 0 0 0-1.449-1.088c-.604-69.616-.966-139.235-1.087-208.854-.91-4.6-3.204-8.347-6.885-11.24A147.993 147.993 0 0 1 96.725 42.06c-5.578-5.589-9.323-12.237-11.233-19.943l.724-1.813a53.045 53.045 0 0 0 7.248 3.989 240.479 240.479 0 0 0 24.642 5.076c14.674 4.016 27.116 11.63 37.325 22.844 2.49 3.481 4.06 7.349 4.711 11.603.971-.862 1.455-1.95 1.45-3.264-1.447-8.575-4.95-16.19-10.509-22.843-13.374-15.579-29.922-26.336-49.647-32.271-16.397-1.481-23.283 5.892-20.655 22.118 3.112 8.396 8.186 15.406 15.22 21.03.495.932.374 1.778-.363 2.539a6.692 6.692 0 0 1-4.348 0 83.189 83.189 0 0 1-21.018-18.13 6.106 6.106 0 0 0-2.9-.362c2.136 8.307 6.726 14.954 13.771 19.942 9.907 6.13 20.537 10.722 31.89 13.779 8.611 2.966 12.476 9.009 11.596 18.13a167.879 167.879 0 0 1-3.986 32.271 97.072 97.072 0 0 1-3.624 8.702 2363.014 2363.014 0 0 1-45.298 53.301c-10.373 8.215-21.97 10.391-34.789 6.527-13.064-5.993-23.815-14.816-32.251-26.469-5.404-10.097-6.129-20.491-2.175-31.183a3049.952 3049.952 0 0 1 71.752-117.48C78.093 5.039 83.046 1.654 89.115 0Zm193.512 161.355c-7.969-.363-15.941-.484-23.917-.363-10.925 1.074-17.085 7.117-18.482 18.13a2701.172 2701.172 0 0 0 0 88.473c1.241 9.703 6.677 15.383 16.308 17.042 9.18.484 18.36.484 27.541 0 10.216-1.937 15.893-8.102 17.031-18.492.701-30.24.459-60.456-.724-90.649-2.695-8.736-8.613-13.45-17.757-14.141Zm54.357 0a226.702 226.702 0 0 0-18.119-.363 3.125 3.125 0 0 1-1.087 1.451 5061.142 5061.142 0 0 0 0 121.106l1.087 1.088c19.085.484 38.171.484 57.256 0l1.087-1.088c.484-6.043.484-12.086 0-18.129a523.522 523.522 0 0 0-38.774-.726c.121-34.084 0-68.168-.363-102.251l-1.087-1.088Zm94.219 0a394.083 394.083 0 0 0-23.917-.363c-10.924 1.074-17.085 7.117-18.481 18.13a2695.592 2695.592 0 0 0 0 88.473c1.24 9.703 6.676 15.383 16.307 17.042 9.18.484 18.36.484 27.541 0 10.216-1.937 15.893-8.102 17.032-18.492.7-30.24.458-60.456-.725-90.649-2.695-8.736-8.613-13.45-17.757-14.141Zm54.357 0a226.702 226.702 0 0 0-18.119-.363 3.125 3.125 0 0 1-1.087 1.451 5061.142 5061.142 0 0 0 0 121.106l1.087 1.088c6.04.484 12.08.484 18.119 0l1.088-1.088.362-18.496.045-2.294.317-16.194a87.947 87.947 0 0 0 5.074-9.428 1378.222 1378.222 0 0 1 20.293 46.412l1.087 1.088c6.764.484 13.529.484 20.294 0 .405-.526.646-1.13.724-1.813a10602.247 10602.247 0 0 1-28.265-64.179 5307.792 5307.792 0 0 0 25.729-52.576c1.351-1.781 1.23-3.352-.363-4.714a122.46 122.46 0 0 0-18.844 0 6.845 6.845 0 0 0-1.811 1.088 2262.975 2262.975 0 0 1-23.918 48.587l-.169-11.384-.147-9.821-.046-3.088-.362-24.294-1.088-1.088Zm98.568 0c-7.969-.363-15.941-.484-23.917-.363-10.924 1.074-17.085 7.117-18.481 18.13a2695.592 2695.592 0 0 0 0 88.473c1.24 9.703 6.676 15.383 16.307 17.042 9.18.484 18.36.484 27.541 0 10.216-1.937 15.893-8.102 17.032-18.492.7-30.24.458-60.456-.725-90.649-2.695-8.736-8.613-13.45-17.757-14.141ZM277.554 181.66a131.01 131.01 0 0 0-13.771-.362c-1.431.831-2.518 2.04-3.261 3.626a2034.96 2034.96 0 0 0 0 76.87 6.397 6.397 0 0 0 2.536 2.538 79.95 79.95 0 0 0 15.22 0 6.4 6.4 0 0 0 2.537-2.538c.483-25.623.483-51.247 0-76.87-.604-1.572-1.691-2.66-3.261-3.264Zm134.805-.362c4.597-.121 9.187 0 13.771.362 1.571.604 2.658 1.692 3.261 3.264a2034.96 2034.96 0 0 1 0 76.87 6.397 6.397 0 0 1-2.536 2.538 79.95 79.95 0 0 1-15.22 0 6.406 6.406 0 0 1-2.537-2.538 2039.172 2039.172 0 0 1 0-76.87c.743-1.586 1.83-2.795 3.261-3.626Zm166.696.362a131.01 131.01 0 0 0-13.771-.362c-1.431.831-2.518 2.04-3.261 3.626a2034.96 2034.96 0 0 0 0 76.87 6.4 6.4 0 0 0 2.537 2.538 79.95 79.95 0 0 0 15.22 0 6.404 6.404 0 0 0 2.536-2.538 2034.96 2034.96 0 0 0 0-76.87c-.604-1.572-1.691-2.66-3.261-3.264Z" clip-rule="evenodd"/></svg>