<?xml version="1.0" encoding="UTF-8"?>
<!DOCTYPE svg PUBLIC "-//W3C//DTD SVG 1.1//EN" "http://www.w3.org/Graphics/SVG/1.1/DTD/svg11.dtd">
<svg xmlns="http://www.w3.org/2000/svg" version="1.1" width="756px" height="216px" style="shape-rendering:geometricPrecision; text-rendering:geometricPrecision; image-rendering:optimizeQuality; fill-rule:evenodd; clip-rule:evenodd" xmlns:xlink="http://www.w3.org/1999/xlink">
<g><path style="opacity:1" fill="#fdfdfd" d="M -0.5,-0.5 C 251.5,-0.5 503.5,-0.5 755.5,-0.5C 755.5,71.5 755.5,143.5 755.5,215.5C 503.5,215.5 251.5,215.5 -0.5,215.5C -0.5,143.5 -0.5,71.5 -0.5,-0.5 Z"/></g>
<g><path style="opacity:1" fill="#050505" d="M 102.5,166.5 C 95.1616,167.783 87.8283,167.783 80.5,166.5C 72.3097,164.936 64.4763,162.27 57,158.5C 54.9291,159.775 53.4291,161.609 52.5,164C 49.5184,164.498 46.5184,164.665 43.5,164.5C 42.7346,147.845 42.4012,131.178 42.5,114.5C 45.5,114.5 48.5,114.5 51.5,114.5C 54.1034,129.887 61.4367,142.387 73.5,152C 83.9083,157.712 94.9083,159.045 106.5,156C 118.066,150.03 122.566,140.53 120,127.5C 118.053,119.429 113.553,113.262 106.5,109C 92.2472,103.603 78.2472,97.6026 64.5,91C 46.5502,77.7191 41.7169,60.5524 50,39.5C 61.3653,22.7381 77.1986,15.5714 97.5,18C 106.012,19.6787 113.845,22.8454 121,27.5C 122.5,25.3333 124,23.1667 125.5,21C 128.482,20.502 131.482,20.3354 134.5,20.5C 134.818,36.7469 134.818,52.9136 134.5,69C 131.571,69.7772 128.737,69.6105 126,68.5C 123.752,58.0829 119.752,48.4162 114,39.5C 104.517,28.436 92.6835,24.936 78.5,29C 67.1614,34.8607 63.328,44.0273 67,56.5C 68.9633,62.7987 72.7966,67.632 78.5,71C 88.5081,76.1137 98.8414,80.447 109.5,84C 125.386,89.2188 135.886,99.7188 141,115.5C 142.673,143.498 129.84,160.498 102.5,166.5 Z"/></g>
<g><path style="opacity:1" fill="#050505" d="M 467.5,61.5 C 478.351,60.144 488.518,62.144 498,67.5C 500.236,64.2306 503.403,62.8972 507.5,63.5C 507.5,74.8333 507.5,86.1667 507.5,97.5C 505.5,97.5 503.5,97.5 501.5,97.5C 499.97,86.5968 494.97,77.7635 486.5,71C 475.616,65.8077 466.783,67.9744 460,77.5C 458.115,85.945 460.615,92.7784 467.5,98C 478.5,103 489.5,108 500.5,113C 511.606,121.227 515.106,132.06 511,145.5C 502.282,162.275 488.448,169.109 469.5,166C 463.985,164.662 458.652,162.829 453.5,160.5C 451.833,160.833 450.833,161.833 450.5,163.5C 448.257,164.474 445.924,164.808 443.5,164.5C 443.635,152.815 443.302,141.148 442.5,129.5C 444.833,129.5 447.167,129.5 449.5,129.5C 451.388,142.47 458.054,151.97 469.5,158C 475.819,159.947 482.152,159.947 488.5,158C 496.695,153.091 499.529,145.924 497,136.5C 495.224,133.059 493.057,129.892 490.5,127C 479.833,122.333 469.167,117.667 458.5,113C 446.932,104.59 443.099,93.423 447,79.5C 451.232,70.429 458.065,64.429 467.5,61.5 Z"/></g>
<g><path style="opacity:1" fill="#050505" d="M 290.5,62.5 C 301.6,92.4796 313.266,122.146 325.5,151.5C 328.159,156.667 332.492,159 338.5,158.5C 338.5,160.5 338.5,162.5 338.5,164.5C 324.167,164.5 309.833,164.5 295.5,164.5C 295.5,162.5 295.5,160.5 295.5,158.5C 299.247,158.608 302.914,158.108 306.5,157C 307.804,156.196 308.471,155.029 308.5,153.5C 305.633,145.601 302.633,137.768 299.5,130C 287.838,129.5 276.171,129.333 264.5,129.5C 262.778,135.168 260.944,140.835 259,146.5C 257.773,150.591 258.606,154.091 261.5,157C 265.086,158.108 268.753,158.608 272.5,158.5C 272.5,160.5 272.5,162.5 272.5,164.5C 259.833,164.5 247.167,164.5 234.5,164.5C 234.5,162.5 234.5,160.5 234.5,158.5C 240.166,158.417 244.666,156.084 248,151.5C 260.323,122.032 272.156,92.3656 283.5,62.5C 285.973,61.2031 288.307,61.2031 290.5,62.5 Z"/></g>
<g><path style="opacity:1" fill="#050505" d="M 207.5,119.5 C 199.868,120.358 192.201,120.691 184.5,120.5C 184.333,131.172 184.5,141.839 185,152.5C 186.974,157.74 190.808,159.74 196.5,158.5C 198.075,160.114 198.741,162.114 198.5,164.5C 184.167,164.5 169.833,164.5 155.5,164.5C 155.5,162.5 155.5,160.5 155.5,158.5C 160.447,159.372 164.613,158.039 168,154.5C 168.667,127.5 168.667,100.5 168,73.5C 164.032,70.5476 159.532,69.2143 154.5,69.5C 154.5,67.5 154.5,65.5 154.5,63.5C 172.503,63.3334 190.503,63.5001 208.5,64C 230.026,68.2143 237.192,80.7143 230,101.5C 228.114,105.44 225.614,108.94 222.5,112C 217.687,115.073 212.687,117.573 207.5,119.5 Z"/></g>
<g><path style="opacity:1" fill="#040404" d="M 341.5,63.5 C 359.17,63.3334 376.836,63.5001 394.5,64C 415.463,66.6211 423.296,78.1211 418,98.5C 416.262,102.241 413.762,105.408 410.5,108C 405.893,110.798 401.227,113.298 396.5,115.5C 405,127.167 413.5,138.833 422,150.5C 426.717,155.742 432.55,158.408 439.5,158.5C 439.5,160.5 439.5,162.5 439.5,164.5C 430.161,164.666 420.827,164.5 411.5,164C 401.905,148.807 391.571,134.141 380.5,120C 377.183,119.502 373.85,119.335 370.5,119.5C 370.333,131.171 370.5,142.838 371,154.5C 374.735,158.096 379.235,159.429 384.5,158.5C 384.5,160.5 384.5,162.5 384.5,164.5C 370.167,164.5 355.833,164.5 341.5,164.5C 341.5,162.5 341.5,160.5 341.5,158.5C 344.187,158.664 346.854,158.497 349.5,158C 351.667,157.167 353.167,155.667 354,153.5C 354.667,126.833 354.667,100.167 354,73.5C 350.408,70.4698 346.242,69.1364 341.5,69.5C 341.5,67.5 341.5,65.5 341.5,63.5 Z"/></g>
<g><path style="opacity:1" fill="#050505" d="M 580.5,70.5 C 571.682,69.5067 562.682,69.1734 553.5,69.5C 553.171,82.6774 553.505,95.6774 554.5,108.5C 560.925,108.87 567.258,108.37 573.5,107C 577.843,103.148 580.176,98.3142 580.5,92.5C 582.5,92.5 584.5,92.5 586.5,92.5C 586.5,105.833 586.5,119.167 586.5,132.5C 584.5,132.5 582.5,132.5 580.5,132.5C 580.47,126.275 578.137,121.109 573.5,117C 566.95,115.58 560.284,115.08 553.5,115.5C 553.333,127.838 553.5,140.171 554,152.5C 554.833,154.667 556.333,156.167 558.5,157C 569.24,157.928 579.907,157.595 590.5,156C 596.286,150.201 600.453,143.368 603,135.5C 604.699,134.594 606.533,134.261 608.5,134.5C 608.518,142.851 608.185,151.184 607.5,159.5C 607.5,161.167 607.5,162.833 607.5,164.5C 579.5,164.5 551.5,164.5 523.5,164.5C 523.5,162.5 523.5,160.5 523.5,158.5C 527.247,158.608 530.914,158.108 534.5,157C 535.701,156.097 536.535,154.931 537,153.5C 537.667,127.167 537.667,100.833 537,74.5C 533.201,71.0202 528.701,69.3535 523.5,69.5C 523.5,67.5 523.5,65.5 523.5,63.5C 549.5,63.5 575.5,63.5 601.5,63.5C 601.5,71.8333 601.5,80.1667 601.5,88.5C 599.5,88.5 597.5,88.5 595.5,88.5C 594.108,83.2659 591.608,78.5992 588,74.5C 585.815,72.4598 583.315,71.1264 580.5,70.5 Z"/></g>
<g><path style="opacity:1" fill="#040404" d="M 618.5,63.5 C 636.503,63.3334 654.503,63.5001 672.5,64C 693.573,67.323 701.073,79.1563 695,99.5C 693.6,102.902 691.433,105.736 688.5,108C 683.875,111.099 678.875,113.432 673.5,115C 683.117,128.285 693.117,141.285 703.5,154C 707.52,157.51 712.186,159.01 717.5,158.5C 717.5,160.5 717.5,162.5 717.5,164.5C 708.161,164.666 698.827,164.5 689.5,164C 679.905,148.807 669.571,134.141 658.5,120C 655.183,119.502 651.85,119.335 648.5,119.5C 648.333,131.171 648.5,142.838 649,154.5C 650.008,156.259 651.508,157.426 653.5,158C 656.146,158.497 658.813,158.664 661.5,158.5C 661.5,160.5 661.5,162.5 661.5,164.5C 647.167,164.5 632.833,164.5 618.5,164.5C 618.5,162.5 618.5,160.5 618.5,158.5C 621.518,158.665 624.518,158.498 627.5,158C 629.667,157.167 631.167,155.667 632,153.5C 632.667,127.167 632.667,100.833 632,74.5C 631.5,72.6667 630.333,71.5 628.5,71C 625.274,69.8011 621.941,69.3011 618.5,69.5C 618.5,67.5 618.5,65.5 618.5,63.5 Z"/></g>
<g><path style="opacity:1" fill="#c3c3c3" d="M 580.5,70.5 C 571.833,70.5 563.167,70.5 554.5,70.5C 554.5,83.1667 554.5,95.8333 554.5,108.5C 553.505,95.6774 553.171,82.6774 553.5,69.5C 562.682,69.1734 571.682,69.5067 580.5,70.5 Z"/></g>
<g><path style="opacity:1" fill="#6c6c6c" d="M 664.5,70.5 C 659.167,70.5 653.833,70.5 648.5,70.5C 648.5,84.1667 648.5,97.8333 648.5,111.5C 652.833,111.5 657.167,111.5 661.5,111.5C 657.03,112.486 652.363,112.819 647.5,112.5C 647.5,98.1667 647.5,83.8333 647.5,69.5C 653.358,69.1778 659.025,69.5111 664.5,70.5 Z"/></g>
<g><path style="opacity:1" fill="#afafaf" d="M 196.5,70.5 C 192.833,70.5 189.167,70.5 185.5,70.5C 185.5,84.8333 185.5,99.1667 185.5,113.5C 184.504,99.0095 184.171,84.3428 184.5,69.5C 188.702,69.1832 192.702,69.5166 196.5,70.5 Z"/></g>
<g><path style="opacity:1" fill="#fafafa" d="M 196.5,70.5 C 205.706,70.8663 211.54,75.533 214,84.5C 216.536,105.798 207.036,115.465 185.5,113.5C 185.5,99.1667 185.5,84.8333 185.5,70.5C 189.167,70.5 192.833,70.5 196.5,70.5 Z"/></g>
<g><path style="opacity:1" fill="#cccccc" d="M 390.5,71.5 C 384.167,71.5 377.833,71.5 371.5,71.5C 371.5,84.8333 371.5,98.1667 371.5,111.5C 375.833,111.5 380.167,111.5 384.5,111.5C 380.03,112.486 375.363,112.819 370.5,112.5C 370.5,98.1667 370.5,83.8333 370.5,69.5C 375.844,69.334 381.177,69.5006 386.5,70C 388.058,70.21 389.391,70.71 390.5,71.5 Z"/></g>
<g><path style="opacity:1" fill="#fcfcfc" d="M 390.5,71.5 C 399.895,76.2982 403.395,83.9649 401,94.5C 399.363,103.969 393.863,109.636 384.5,111.5C 380.167,111.5 375.833,111.5 371.5,111.5C 371.5,98.1667 371.5,84.8333 371.5,71.5C 377.833,71.5 384.167,71.5 390.5,71.5 Z"/></g>
<g><path style="opacity:1" fill="#fbfbfb" d="M 664.5,70.5 C 674.339,72.6509 679.339,78.8176 679.5,89C 679.19,101.136 673.19,108.636 661.5,111.5C 657.167,111.5 652.833,111.5 648.5,111.5C 648.5,97.8333 648.5,84.1667 648.5,70.5C 653.833,70.5 659.167,70.5 664.5,70.5 Z"/></g>
<g><path style="opacity:1" fill="#f5f5f5" d="M 296.5,122.5 C 286.985,122.827 277.652,122.494 268.5,121.5C 272.698,109.407 277.198,97.4074 282,85.5C 287.134,97.7386 291.967,110.072 296.5,122.5 Z"/></g>
<g><path style="opacity:1" fill="#dcdcdc" d="M 290.5,62.5 C 291.497,62.4701 292.164,62.9701 292.5,64C 303.659,93.1434 314.659,122.31 325.5,151.5C 313.266,122.146 301.6,92.4796 290.5,62.5 Z"/></g>
<g><path style="opacity:1" fill="#d7d7d7" d="M 207.5,119.5 C 207.082,120.222 206.416,120.722 205.5,121C 199.175,121.5 192.842,121.666 186.5,121.5C 186.333,132.172 186.5,142.839 187,153.5C 188.008,155.259 189.508,156.426 191.5,157C 194.365,157.183 197.031,157.683 199.5,158.5C 198.5,158.5 197.5,158.5 196.5,158.5C 190.808,159.74 186.974,157.74 185,152.5C 184.5,141.839 184.333,131.172 184.5,120.5C 192.201,120.691 199.868,120.358 207.5,119.5 Z"/></g>
<g><path style="opacity:1" fill="#414141" d="M 268.5,121.5 C 277.652,122.494 286.985,122.827 296.5,122.5C 286.992,123.823 277.325,123.823 267.5,122.5C 267.624,121.893 267.957,121.56 268.5,121.5 Z"/></g>
<g><path style="opacity:1" fill="#a5a5a5" d="M 608.5,134.5 C 609.165,137.314 609.498,140.314 609.5,143.5C 609.571,149.068 608.904,154.401 607.5,159.5C 608.185,151.184 608.518,142.851 608.5,134.5 Z"/></g>
<g><path style="opacity:1" fill="#4e4e4e" d="M 196.5,158.5 C 197.5,158.5 198.5,158.5 199.5,158.5C 199.795,160.735 199.461,162.735 198.5,164.5C 198.741,162.114 198.075,160.114 196.5,158.5 Z"/></g>
<g><path style="opacity:1" fill="#bdbdbd" d="M 80.5,166.5 C 87.8283,167.783 95.1616,167.783 102.5,166.5C 98.6089,168.007 94.4422,168.674 90,168.5C 87.1667,168.333 84.3333,168.167 81.5,168C 80.944,167.617 80.6107,167.117 80.5,166.5 Z"/></g>
<g><path style="opacity:1" fill="#000000" d="M 32.5,175.5 C 259.833,175.5 487.167,175.5 714.5,175.5C 714.5,182.167 714.5,188.833 714.5,195.5C 487.167,195.5 259.833,195.5 32.5,195.5C 32.5,188.833 32.5,182.167 32.5,175.5 Z"/></g>
</svg>
